<svg width="200" height="113" viewBox="0 0 200 113" fill="none" xmlns="http://www.w3.org/2000/svg">
<path d="M148.792 34.0475L165.382 5.09016C166.318 3.46682 165.752 1.40484 164.163 0.461477C162.574 -0.481651 160.505 0.0668003 159.591 1.68997L142.783 31.0201C129.959 25.119 115.524 21.8284 100 21.8284C84.4764 21.8284 70.0415 25.119 57.2177 31.0201L40.4093 1.68997C39.4731 0.0666285 37.4267 -0.481766 35.8154 0.461477C34.2044 1.40455 33.6599 3.46682 34.596 5.09016L51.1867 34.0475C22.5779 49.6669 3.20056 78.8434 0 113H200C196.8 78.8434 177.423 49.6669 148.792 34.0475ZM54.0825 84.7009C49.4451 84.7009 45.7002 80.9057 45.7002 76.2549C45.7002 71.5822 49.4667 67.8091 54.0825 67.8091C58.7199 67.8091 62.4648 71.6044 62.4648 76.2549C62.4873 80.9057 58.7199 84.7009 54.0825 84.7009ZM145.896 84.7009C141.259 84.7009 137.514 80.9057 137.514 76.2549C137.514 71.5822 141.28 67.8091 145.896 67.8091C150.534 67.8091 154.278 71.6044 154.278 76.2549C154.301 80.9057 150.534 84.7009 145.896 84.7009Z" fill="black"/>
</svg>
