<svg xmlns="http://www.w3.org/2000/svg" fill="none" viewBox="0 0 20 20"><path fill="#fff" d="M18 7h-2.5c-.827 0-1.5-.673-1.5-1.5V2H6v16h12V7z"/><path fill="#fff" d="M18 6v-.293l-3-3V5.5c0 .275.225.5.5.5H18z"/><path fill="#605E5C" fill-rule="evenodd" d="M18.707 5 15 1.293A1 1 0 0 0 14.293 1H6a1 1 0 0 0-1 1v16a1 1 0 0 0 1 1h12a1 1 0 0 0 1-1V5.707A1 1 0 0 0 18.707 5zM18 5.707V6h-2.5a.501.501 0 0 1-.5-.5V2.707l3 3zM6 2.2v15.6c0 .11.09.2.2.2h11.6a.2.2 0 0 0 .2-.2V7h-2.5A1.5 1.5 0 0 1 14 5.5V2H6.2a.2.2 0 0 0-.2.2z" clip-rule="evenodd" opacity=".64"/><path fill="#107C41" d="M2 16h8a1 1 0 0 0 1-1V7a1 1 0 0 0-1-1H2a1 1 0 0 0-1 1v8a1 1 0 0 0 1 1z"/><path fill="#fff" d="m4.606 14 3.707-6H7.15l-3.755 6h1.21z"/><path fill="#fff" d="M7.374 14 3.668 8H4.83l3.754 6h-1.21z"/><path fill="#33C481" fill-rule="evenodd" d="M16.084 13.882H17V10.14C17 8.713 16.326 8 14.982 8a3.97 3.97 0 0 0-1.083.176c-.406.117-.693.239-.86.366v.938c.555-.465 1.177-.698 1.864-.698.787 0 1.18.484 1.18 1.453l-1.714.24c-1.26.179-1.89.8-1.89 1.865 0 .508.167.91.498 1.21.33.3.774.45 1.323.45.774 0 1.362-.344 1.76-1.033h.024v.915zm-1.386-2.72 1.386-.195v.569c0 .481-.15.882-.445 1.202-.295.32-.671.48-1.125.48-.321 0-.584-.086-.79-.259a.86.86 0 0 1-.306-.69c0-.355.095-.61.285-.769.19-.158.522-.271.995-.338z" clip-rule="evenodd"/></svg>