<svg width="20" height="20" viewBox="0 0 20 20" fill="none" xmlns="http://www.w3.org/2000/svg">
<path d="M16 7H13.5C12.673 7 12 6.327 12 5.5V2H4V18H16V7Z" fill="white"/>
<path d="M16 6.00003V5.70703L13 2.70703V5.50003C13 5.77503 13.225 6.00003 13.5 6.00003H16Z" fill="white"/>
<path opacity="0.64" fill-rule="evenodd" clip-rule="evenodd" d="M16.707 5L13 1.293C12.8125 1.10545 12.5582 1.00006 12.293 1H4C3.73478 1 3.48043 1.10536 3.29289 1.29289C3.10536 1.48043 3 1.73478 3 2V18C3 18.2652 3.10536 18.5196 3.29289 18.7071C3.48043 18.8946 3.73478 19 4 19H16C16.2652 19 16.5196 18.8946 16.7071 18.7071C16.8946 18.5196 17 18.2652 17 18V5.707C16.9999 5.4418 16.8946 5.18749 16.707 5ZM16 5.707V6H13.5C13.3675 5.99974 13.2404 5.94697 13.1467 5.85326C13.053 5.75955 13.0003 5.63253 13 5.5V2.707L16 5.707ZM4 2.2V17.8C4 17.91 4.09 18 4.2 18H15.8C15.853 18 15.9039 17.9789 15.9414 17.9414C15.9789 17.9039 16 17.853 16 17.8V7H13.5C13.1022 7 12.7206 6.84196 12.4393 6.56066C12.158 6.27936 12 5.89782 12 5.5V2H4.2C4.14696 2 4.09609 2.02107 4.05858 2.05858C4.02107 2.09609 4 2.14696 4 2.2Z" fill="#605E5C"/>
</svg>
