<svg width="163" height="200" viewBox="0 0 163 200" fill="none" xmlns="http://www.w3.org/2000/svg">
<path d="M157.814 68.1791C151.268 72.1804 145.845 77.7753 142.053 84.4401C138.261 91.1049 136.225 98.6217 136.135 106.287C136.161 114.913 138.72 123.343 143.495 130.531C148.27 137.719 155.052 143.35 163 146.727C159.867 156.825 155.229 166.394 149.243 175.113C140.678 187.427 131.722 199.74 118.096 199.74C104.469 199.74 100.965 191.834 85.2605 191.834C69.9447 191.834 64.4957 200 52.0403 200C39.5849 200 30.8883 188.593 20.8953 174.595C7.69385 154.985 0.438551 131.987 0 108.36C0 69.4728 25.3077 48.8657 50.225 48.8657C63.4635 48.8657 74.493 57.5502 82.7981 57.5502C90.7148 57.5502 103.044 48.3475 118.099 48.3475C125.839 48.1474 133.51 49.8516 140.436 53.3099C147.362 56.7683 153.33 61.8746 157.814 68.1791ZM83.8389 46.1436C82.9244 46.1408 82.012 46.0543 81.1133 45.885C80.8595 44.6915 80.7291 43.475 80.724 42.2548C81.1571 32.2232 85.0552 22.6509 91.7557 15.165C99.276 6.53767 109.817 1.11161 121.216 0C121.487 1.32194 121.617 2.66873 121.605 4.01801C121.358 14.2503 117.601 24.0876 110.963 31.8856C107.645 35.9742 103.53 39.3464 98.8675 41.7975C94.2047 44.2485 89.0916 45.7272 83.8389 46.1436Z" fill="black"/>
</svg>
