<svg width="200" height="144" viewBox="0 0 200 144" fill="none" xmlns="http://www.w3.org/2000/svg">
<path fill-rule="evenodd" clip-rule="evenodd" d="M0 0H200V144H0V0ZM28.8484 30.6213C30.2948 29.1794 32.6398 29.1794 34.0862 30.6213L52.6047 49.0828C54.0509 50.5249 54.0509 52.8625 52.6047 54.3047L34.0862 72.766C32.6398 74.2081 30.2948 74.2081 28.8484 72.766C27.402 71.3242 27.402 68.9862 28.8484 67.5444L44.7479 51.6935L28.8484 35.843C27.402 34.4011 27.402 32.0632 28.8484 30.6213ZM59.2659 81.2321C57.2203 81.2321 55.5623 82.8851 55.5623 84.9243C55.5623 86.9636 57.2203 88.6165 59.2659 88.6165H92.5992C94.6448 88.6165 96.3028 86.9636 96.3028 84.9243C96.3028 82.8851 94.6448 81.2321 92.5992 81.2321H59.2659Z" fill="black"/>
</svg>
