<svg width="200" height="167" viewBox="0 0 200 167" fill="none" xmlns="http://www.w3.org/2000/svg">
<path d="M82.3282 89.3542C83.4732 69.3442 91.9957 36.7484 110.515 0H16.6667C7.46193 0 0 7.47684 0 16.7V150.3C0 159.523 7.46193 167 16.6667 167H111.396C109.863 157.085 109.337 147.189 109.376 137.919C105.637 138.408 101.843 138.672 98.039 138.672C84.5982 138.672 71.2748 135.383 60.134 130.487C49.1244 125.648 39.5952 118.947 34.3127 111.596C32.363 108.883 32.9777 105.1 35.686 103.146C38.3935 101.193 42.1694 101.808 44.1186 104.522C47.6602 109.45 55.0436 115.029 64.9882 119.399C74.8032 123.713 86.4799 126.564 98.039 126.564C101.953 126.564 105.881 126.237 109.746 125.637C110.302 115.439 111.377 106.524 112.235 99.9228H92.4015C86.8573 99.9228 81.9857 95.3553 82.3282 89.3542ZM121.483 135.53C126.57 134.186 131.436 132.469 135.944 130.487C146.955 125.648 156.484 118.947 161.766 111.596C163.716 108.883 163.101 105.1 160.393 103.146C157.685 101.193 153.909 101.808 151.96 104.522C148.418 109.45 141.036 115.029 131.091 119.399C128.214 120.663 125.177 121.801 122.032 122.779C122.666 113.513 123.7 105.405 124.497 99.35C125.304 93.2194 120.54 87.8153 114.397 87.8153H94.5499C96.1524 68.6337 104.912 36.4916 124.112 0H183.333C192.538 0 200 7.47684 200 16.7V150.3C200 159.523 192.538 167 183.333 167H123.632C121.832 156.337 121.323 145.556 121.483 135.53ZM54.1669 35.6963C57.5036 35.6963 60.2086 38.4067 60.2086 41.75V61.3971C60.2086 64.7405 57.5036 67.4505 54.1669 67.4505C50.8302 67.4505 48.1252 64.7405 48.1252 61.3971V41.75C48.1252 38.4067 50.8302 35.6963 54.1669 35.6963ZM151.875 41.75C151.875 38.4067 149.17 35.6963 145.833 35.6963C142.497 35.6963 139.792 38.4067 139.792 41.75V61.3971C139.792 64.7405 142.497 67.4505 145.833 67.4505C149.17 67.4505 151.875 64.7405 151.875 61.3971V41.75Z" fill="black"/>
</svg>
