<svg width="200" height="185" viewBox="0 0 200 185" fill="none" xmlns="http://www.w3.org/2000/svg">
<path d="M156.632 97.5648C145.13 97.5648 134.099 102.134 125.966 110.267C117.833 118.4 113.264 129.431 113.264 140.933C113.264 152.435 117.833 163.466 125.966 171.599C134.099 179.732 145.13 184.301 156.632 184.301C168.134 184.301 179.165 179.732 187.298 171.599C195.431 163.466 200 152.435 200 140.933C200 129.431 195.431 118.4 187.298 110.267C179.165 102.134 168.134 97.5648 156.632 97.5648ZM43.9678 97.5732C38.2229 97.4932 32.5194 98.5556 27.1886 100.699C21.8578 102.842 17.0061 106.023 12.9152 110.057C8.82441 114.092 5.57605 118.899 3.3589 124.199C1.14174 129.499 0 135.188 0 140.933C0 146.678 1.14174 152.367 3.3589 157.667C5.57605 162.967 8.82441 167.774 12.9152 171.809C17.0061 175.843 21.8578 179.024 27.1886 181.167C32.5194 183.31 38.2229 184.373 43.9678 184.293C55.3629 184.134 66.2376 179.496 74.2397 171.382C82.2418 163.267 86.728 152.329 86.728 140.933C86.728 129.537 82.2418 118.599 74.2397 110.484C66.2376 102.37 55.3629 97.7319 43.9678 97.5732ZM143.66 43.364C143.66 54.8648 139.091 65.8946 130.959 74.027C122.826 82.1593 111.796 86.728 100.296 86.728C88.7947 86.728 77.7649 82.1593 69.6326 74.027C61.5003 65.8946 56.9316 54.8648 56.9316 43.364C56.9316 31.8631 61.5003 20.8333 69.6326 12.701C77.7649 4.56869 88.7947 0 100.296 0C111.796 0 122.826 4.56869 130.959 12.701C139.091 20.8333 143.66 31.8631 143.66 43.364Z" fill="#FF584A"/>
</svg>
