<svg width="234" height="221" viewBox="0 0 234 221" fill="none" xmlns="http://www.w3.org/2000/svg">
<path d="M78.0028 6.10496e-05H147.241L75.3678 212.958C74.629 215.147 73.2222 217.049 71.3456 218.396C69.4689 219.743 67.217 220.468 64.9068 220.468H11.0238C9.27364 220.468 7.54858 220.052 5.99138 219.253C4.43417 218.454 3.08958 217.296 2.06884 215.874C1.0481 214.452 0.38057 212.808 0.121466 211.077C-0.137637 209.346 0.0191385 207.578 0.578822 205.92L67.5418 7.51006C68.2805 5.32114 69.6872 3.41909 71.5639 2.07182C73.4406 0.724549 75.6926 -5.71837e-05 78.0028 6.10496e-05Z" fill="url(#paint0_linear_193_149)"/>
<path d="M178.615 142.838H68.8208C67.8004 142.838 66.8035 143.145 65.9599 143.719C65.1163 144.293 64.465 145.108 64.0909 146.057C63.7168 147.007 63.637 148.047 63.8621 149.042C64.0872 150.037 64.6066 150.942 65.3528 151.638L135.905 217.485C137.958 219.402 140.663 220.468 143.472 220.468H205.639L178.615 142.838Z" fill="#0078D4"/>
<path d="M78.0028 7.60847e-05C75.6677 -0.00862631 73.3909 0.729401 71.505 2.10639C69.619 3.48339 68.2227 5.42722 67.5198 7.65408L0.661815 205.74C0.0646948 207.404 -0.122783 209.188 0.115243 210.94C0.35327 212.692 1.0098 214.361 2.02928 215.806C3.04877 217.251 4.40123 218.429 5.97224 219.24C7.54326 220.052 9.2866 220.473 11.0548 220.468H66.3288C68.3881 220.1 70.3127 219.192 71.9061 217.837C73.4995 216.482 74.7044 214.728 75.3978 212.754L88.7278 173.464L136.353 217.882C138.348 219.533 140.852 220.447 143.442 220.468H205.379L178.213 142.838L99.0228 142.856L147.493 7.60847e-05H78.0028Z" fill="url(#paint1_linear_193_149)"/>
<path d="M166.437 7.49806C165.699 5.31273 164.295 3.41381 162.421 2.06871C160.548 0.723612 158.299 9.87801e-05 155.993 6.10356e-05H78.8288C81.1354 3.97518e-05 83.3839 0.723513 85.2576 2.06861C87.1314 3.4137 88.5361 5.31265 89.2738 7.49806L156.241 205.919C156.8 207.577 156.957 209.345 156.698 211.076C156.439 212.807 155.771 214.451 154.751 215.873C153.73 217.295 152.385 218.453 150.828 219.252C149.271 220.051 147.546 220.468 145.796 220.468H222.96C224.71 220.468 226.435 220.051 227.992 219.252C229.549 218.453 230.893 217.294 231.914 215.873C232.935 214.451 233.602 212.807 233.861 211.076C234.12 209.345 233.963 207.577 233.404 205.919L166.437 7.49806Z" fill="url(#paint2_linear_193_149)"/>
<defs>
<linearGradient id="paint0_linear_193_149" x1="103.239" y1="16.3371" x2="31.3338" y2="228.762" gradientUnits="userSpaceOnUse">
<stop stop-color="#114A8B"/>
<stop offset="1" stop-color="#0669BC"/>
</linearGradient>
<linearGradient id="paint1_linear_193_149" x1="125.701" y1="115.332" x2="109.067" y2="120.956" gradientUnits="userSpaceOnUse">
<stop stop-opacity="0.3"/>
<stop offset="0.071" stop-opacity="0.2"/>
<stop offset="0.321" stop-opacity="0.1"/>
<stop offset="0.623" stop-opacity="0.05"/>
<stop offset="1" stop-opacity="0"/>
</linearGradient>
<linearGradient id="paint2_linear_193_149" x1="116.553" y1="10.1401" x2="195.482" y2="220.426" gradientUnits="userSpaceOnUse">
<stop stop-color="#3CCBF4"/>
<stop offset="1" stop-color="#2892DF"/>
</linearGradient>
</defs>
</svg>
