<svg width="200" height="106" viewBox="0 0 200 106" fill="none" xmlns="http://www.w3.org/2000/svg">
<path d="M103.244 31.2558C88.9421 31.2558 76.5528 39.298 70.293 51.0787C64.0331 39.298 51.6004 31.2558 37.2983 31.2558C28.9084 31.2558 21.1705 34.038 14.9106 38.7329V7.30316C14.8237 3.26034 11.5199 0 7.43358 0C3.34729 0 0.0869424 3.26034 0 7.30316V69.2062C0.34777 89.5507 16.9103 105.896 37.2983 105.896C51.6004 105.896 64.0331 97.8537 70.293 86.073C76.5528 97.8537 88.9856 105.896 103.244 105.896C123.85 105.896 140.586 89.203 140.586 68.5541C140.542 47.9488 123.85 31.2558 103.244 31.2558ZM37.2983 90.9418C24.9525 90.9418 14.9106 80.9434 14.9106 68.5541C14.9106 56.2083 24.9525 46.1664 37.2983 46.1664C49.6441 46.1664 59.686 56.1648 59.686 68.5541C59.686 80.9434 49.6441 90.9418 37.2983 90.9418ZM103.244 90.9418C90.8983 90.9418 80.8565 80.9434 80.8565 68.5541C80.8565 56.2083 90.8983 46.1664 103.244 46.1664C115.59 46.1664 125.632 56.1648 125.632 68.5541C125.632 80.9434 115.59 90.9418 103.244 90.9418Z" fill="#0061D5"/>
<path d="M198.446 93.4196L178.145 68.5541L198.446 43.6016C201.011 40.2978 200.272 35.7333 196.751 33.2989C193.186 30.8211 188.23 31.4731 185.492 34.6465L168.016 56.0779L150.541 34.6465C147.802 31.4731 142.803 30.8211 139.282 33.2989C135.761 35.7333 135.022 40.3413 137.586 43.6016L157.844 68.5541L137.586 93.4196C135.022 96.7234 135.761 101.288 139.282 103.766C142.803 106.2 147.846 105.592 150.541 102.375L168.016 80.9869L185.448 102.375C188.187 105.592 193.186 106.2 196.707 103.766C200.315 101.288 201.054 96.68 198.446 93.4196Z" fill="#0061D5"/>
</svg>
