<svg width="200" height="200" viewBox="0 0 200 200" fill="none" xmlns="http://www.w3.org/2000/svg">
<g clip-path="url(#clip0_231_144)">
<path d="M144.017 144.002V195.086C144.017 197.787 141.818 199.985 139.118 199.985H4.89925C2.19779 199.985 0 197.787 0 195.086V60.8367C0 58.1353 2.19779 55.9375 4.89925 55.9375H55.9522V139.118C55.9522 141.819 58.15 144.018 60.8514 144.018H144.032L144.017 144.002Z" fill="#4C00FF"/>
<path d="M199.985 71.993C199.985 114.987 174.939 143.94 144.002 144.032V89.9112C144.002 88.3544 143.376 86.8584 142.278 85.76L114.21 57.6922C113.11 56.5932 111.615 55.9674 110.058 55.9674H55.9375V4.89925C55.9375 2.19779 58.1353 0 60.8367 0H136.569C172.436 0 199.985 28.9224 199.985 71.993Z" fill="#FF5252"/>
<path d="M142.293 85.7448C143.391 86.844 144.018 88.34 144.018 89.8968V144.018H60.8367C58.1353 144.018 55.9375 141.819 55.9375 139.118V55.9375H110.058C111.615 55.9375 113.11 56.5633 114.21 57.6621L142.293 85.7448Z" fill="black"/>
</g>
<defs>
<clipPath id="clip0_231_144">
<rect width="200" height="200" fill="white"/>
</clipPath>
</defs>
</svg>
