<svg width="92" height="96" viewBox="0 0 92 96" fill="none" xmlns="http://www.w3.org/2000/svg">
<g clip-path="url(#clip0_198_252)">
<path d="M70.397 31.596V20.167C73.38 18.758 75.47 15.74 75.47 12.237V11.973C75.47 7.13901 71.515 3.18501 66.682 3.18501H66.418C61.584 3.18501 57.629 7.14001 57.629 11.973V12.237C57.629 15.74 59.72 18.758 62.703 20.167V31.596C58.261 32.282 54.203 34.114 50.854 36.81L19.474 12.399C19.68 11.604 19.825 10.785 19.826 9.92601C19.834 4.45101 15.401 0.00700828 9.92601 8.27869e-06C4.45101 -0.00699172 0.00700828 4.42601 8.27869e-06 9.90101C-0.00699172 15.376 4.42601 19.82 9.90101 19.827C11.685 19.829 13.337 19.322 14.784 18.499L45.653 42.512C43.028 46.475 41.49 51.221 41.49 56.331C41.49 61.681 43.18 66.629 46.036 70.699L36.648 80.087C35.906 79.864 35.135 79.709 34.32 79.709C29.821 79.709 26.174 83.356 26.174 87.855C26.174 92.354 29.821 96.001 34.32 96.001C38.819 96.001 42.466 92.354 42.466 87.855C42.466 87.04 42.31 86.27 42.088 85.528L51.374 76.242C55.589 79.46 60.838 81.392 66.55 81.392C80.39 81.392 91.61 70.172 91.61 56.332C91.61 43.803 82.406 33.451 70.397 31.596ZM66.551 69.179C59.455 69.179 53.702 63.427 53.702 56.331C53.702 49.235 59.455 43.483 66.551 43.483C73.647 43.483 79.399 49.235 79.399 56.331C79.399 63.427 73.646 69.179 66.551 69.179Z" fill="#F15E3C"/>
</g>
<defs>
<clipPath id="clip0_198_252">
<rect width="91.61" height="96" fill="white"/>
</clipPath>
</defs>
</svg>
