<svg width="200" height="129" viewBox="0 0 200 129" fill="none" xmlns="http://www.w3.org/2000/svg">
<path d="M76.2666 35.5808L76.2685 35.574L118.254 60.7227L143.272 50.1945L143.273 50.1987C148.357 48.0009 153.838 46.8697 159.376 46.8751C160.299 46.8751 161.211 46.917 162.118 46.9775C159.111 35.2489 152.761 24.6464 143.841 16.4583C134.921 8.27033 123.815 2.84942 111.872 0.854314C99.9295 -1.14069 87.6644 0.375914 76.5674 5.22003C65.4703 10.0641 56.0191 18.0271 49.3623 28.1412C49.5762 28.1385 49.7868 28.1251 50.0012 28.1251C59.2802 28.1125 68.3779 30.695 76.2666 35.5808Z" fill="#0364B8"/>
<path d="M76.2674 35.574L76.2655 35.5809C68.3769 30.695 59.2791 28.1125 50.0001 28.125C49.7857 28.125 49.5751 28.1385 49.3612 28.1412C40.2793 28.2536 31.3997 30.8387 23.6767 35.6187C15.9536 40.3987 9.67909 47.1927 5.52733 55.2708C1.37558 63.349 -0.496441 72.4061 0.112457 81.4682C0.721354 90.5302 3.78815 99.2552 8.98327 106.705L46.0083 91.1242L62.4672 84.1982L99.1144 68.7761L118.252 60.7227L76.2674 35.574Z" fill="#0078D4"/>
<path d="M162.117 46.9775C161.21 46.9169 160.298 46.875 159.375 46.875C153.836 46.8696 148.356 48.0008 143.272 50.1986L143.271 50.1944L118.253 60.7227L125.507 65.0682L149.288 79.3131L159.664 85.5271L195.141 106.778C198.364 100.794 200.035 94.0961 199.999 87.2991C199.964 80.5021 198.223 73.8221 194.937 67.8721C191.651 61.9216 186.925 56.8909 181.191 53.2406C175.457 49.5902 168.899 47.4369 162.117 46.9778V46.9775Z" fill="#1490DF"/>
<path d="M159.665 85.5273L149.289 79.3123L125.508 65.0682L118.254 60.7227L99.1155 68.7763L62.4683 84.1983L46.0095 91.1243L8.98441 106.705C13.5854 113.32 19.7191 118.723 26.8617 122.453C34.0042 126.183 41.9433 128.129 50.0012 128.125H159.376C166.71 128.127 173.907 126.143 180.204 122.385C186.501 118.627 191.663 113.233 195.142 106.777L159.665 85.5273Z" fill="#28A8EA"/>
</svg>
