<svg width="20" height="20" viewBox="0 0 20 20" fill="none" xmlns="http://www.w3.org/2000/svg">
<g id="ShareFile Symbol" clip-path="url(#clip0_10656_6233)">
<path id="Vector" d="M20 6.41847V5.00001H13.3335L14.9997 2.50001L13.5818 1.79105L10.4972 6.41794L20 6.41847Z" fill="black"/>
<path id="Vector_2" d="M0 13.5815V14.9995L6.66646 15L4.99969 17.4995L6.41817 18.209L9.5028 13.5815H0Z" fill="black"/>
<path id="Vector_3" d="M1.41847 4.2905L0 4.99999L3.33354 9.99999H0V11.4179H6.16926L1.41847 4.2905Z" fill="black"/>
<path id="Vector_4" d="M18.5815 15.709L19.9994 15L16.6665 9.99999H19.9994V8.58206H13.8301L18.5815 15.709Z" fill="black"/>
<path id="Vector_5" d="M8.58151 19.2905L9.99999 20L13.3329 15L14.9997 17.5L16.4175 16.791L13.3329 12.1636L8.58151 19.2905Z" fill="black"/>
<path id="Vector_6" d="M11.4185 0.708963L9.99998 0L6.66645 5L5.00029 2.5L3.58182 3.20896L6.66645 7.83585L11.4185 0.708963Z" fill="black"/>
</g>
<defs>
<clipPath id="clip0_10656_6233">
<rect width="20" height="20" fill="white"/>
</clipPath>
</defs>
</svg>
