<svg width="200" height="200" viewBox="0 0 200 200" fill="none" xmlns="http://www.w3.org/2000/svg">
<path d="M175.962 0H23.7179C10.5769 0 0 10.5769 0 23.718V176.282C0 189.423 10.5769 200 23.7179 200H175.962C189.103 200 199.679 189.423 199.679 176.282V23.718C199.679 10.5769 189.103 0 175.962 0ZM85.8974 143.91C85.8974 148.397 82.3718 151.923 77.8846 151.923H44.5513C40.0641 151.923 36.5385 148.397 36.5385 143.91V44.8718C36.5385 40.3846 40.0641 36.859 44.5513 36.859H77.8846C82.3718 36.859 85.8974 40.3846 85.8974 44.8718V143.91ZM162.82 98.3975C162.82 102.885 159.295 106.41 155.128 106.41H121.474C116.987 106.41 113.462 102.885 113.462 98.3975V44.8718C113.462 40.3846 116.987 36.859 121.474 36.859H154.808C159.295 36.859 162.82 40.3846 162.82 44.8718V98.3975Z" fill="url(#paint0_linear_200_259)"/>
<defs>
<linearGradient id="paint0_linear_200_259" x1="31145" y1="21000" x2="31145" y2="3.35902" gradientUnits="userSpaceOnUse">
<stop stop-color="#0052CC"/>
<stop offset="1" stop-color="#2684FF"/>
</linearGradient>
</defs>
</svg>
