<svg width="150" height="150" viewBox="0 0 150 150" fill="none" xmlns="http://www.w3.org/2000/svg">
<path d="M121.144 5.28876C114.094 -1.76292 102.663 -1.76292 95.6121 5.28876L77.7653 23.1384C77.5192 13.3801 69.5327 5.54494 59.7169 5.54494H18.0539C8.083 5.54494 0 13.6292 0 23.6018V131.943C0 141.916 8.083 150 18.0539 150H126.378C136.348 150 144.432 141.916 144.432 131.943V90.2735C144.432 80.4716 136.623 72.4938 126.889 72.2233L144.712 54.397C151.763 47.3454 151.763 35.9123 144.712 28.8607L121.144 5.28876ZM89.8603 72.2166H77.7709V60.1252L89.8603 72.2166ZM103.468 13.146C106.179 10.4339 110.576 10.4339 113.288 13.146L136.856 36.718C139.568 39.4302 139.568 43.8274 136.856 46.5397L113.288 70.1114C110.576 72.8239 106.179 72.8239 103.468 70.1114L79.8996 46.5397C77.1881 43.8274 77.1881 39.4302 79.8996 36.718L103.468 13.146ZM66.6607 23.6018V72.2166H11.1101V23.6018C11.1101 19.7662 14.219 16.6569 18.0539 16.6569H59.7169C63.5521 16.6569 66.6607 19.7662 66.6607 23.6018ZM11.1101 131.943V83.3285H66.6607V138.888H18.0539C14.219 138.888 11.1101 135.778 11.1101 131.943ZM77.7709 83.3285H126.378C130.213 83.3285 133.321 86.4376 133.321 90.2735V131.943C133.321 135.778 130.213 138.888 126.378 138.888H77.7709V83.3285Z" fill="#0129AC"/>
</svg>
