<svg width="50" height="50" viewBox="0 0 50 50" fill="none" xmlns="http://www.w3.org/2000/svg">
<g filter="url(#filter0_i_709_218)">
<circle cx="25" cy="25" r="25" fill="#E2E8F0"/>
</g>
<path d="M20.3333 12H15.125C14.2962 12 13.5013 12.3292 12.9153 12.9153C12.3292 13.5013 12 14.2962 12 15.125V20.3333C12 21.1621 12.3292 21.957 12.9153 22.543C13.5013 23.1291 14.2962 23.4583 15.125 23.4583H20.3333C21.1621 23.4583 21.957 23.1291 22.543 22.543C23.1291 21.957 23.4583 21.1621 23.4583 20.3333V15.125C23.4583 14.2962 23.1291 13.5013 22.543 12.9153C21.957 12.3292 21.1621 12 20.3333 12ZM21.375 20.3333C21.375 20.6096 21.2652 20.8745 21.0699 21.0699C20.8745 21.2652 20.6096 21.375 20.3333 21.375H15.125C14.8487 21.375 14.5838 21.2652 14.3884 21.0699C14.1931 20.8745 14.0833 20.6096 14.0833 20.3333V15.125C14.0833 14.8487 14.1931 14.5838 14.3884 14.3884C14.5838 14.1931 14.8487 14.0833 15.125 14.0833H20.3333C20.6096 14.0833 20.8745 14.1931 21.0699 14.3884C21.2652 14.5838 21.375 14.8487 21.375 15.125V20.3333Z" fill="#001A6F"/>
<path d="M35.7916 12H30.5833C29.7545 12 28.9596 12.3292 28.3736 12.9153C27.7875 13.5013 27.4583 14.2962 27.4583 15.125V20.3333C27.4583 21.1621 27.7875 21.957 28.3736 22.543C28.9596 23.1291 29.7545 23.4583 30.5833 23.4583H35.7916C36.6204 23.4583 37.4153 23.1291 38.0014 22.543C38.5874 21.957 38.9166 21.1621 38.9166 20.3333V15.125C38.9166 14.2962 38.5874 13.5013 38.0014 12.9153C37.4153 12.3292 36.6204 12 35.7916 12ZM36.8333 20.3333C36.8333 20.6096 36.7235 20.8745 36.5281 21.0699C36.3329 21.2652 36.0679 21.375 35.7916 21.375H30.5833C30.307 21.375 30.042 21.2652 29.8468 21.0699C29.6514 20.8745 29.5416 20.6096 29.5416 20.3333V15.125C29.5416 14.8487 29.6514 14.5838 29.8468 14.3884C30.042 14.1931 30.307 14.0833 30.5833 14.0833H35.7916C36.0679 14.0833 36.3329 14.1931 36.5281 14.3884C36.7235 14.5838 36.8333 14.8487 36.8333 15.125V20.3333Z" fill="#0062FF"/>
<path d="M20.3333 27.4583H15.125C14.2962 27.4583 13.5013 27.7875 12.9153 28.3736C12.3292 28.9596 12 29.7545 12 30.5833V35.7916C12 36.6204 12.3292 37.4153 12.9153 38.0014C13.5013 38.5874 14.2962 38.9166 15.125 38.9166H20.3333C21.1621 38.9166 21.957 38.5874 22.543 38.0014C23.1291 37.4153 23.4583 36.6204 23.4583 35.7916V30.5833C23.4583 29.7545 23.1291 28.9596 22.543 28.3736C21.957 27.7875 21.1621 27.4583 20.3333 27.4583ZM21.375 35.7916C21.375 36.0679 21.2652 36.3329 21.0699 36.5283C20.8745 36.7235 20.6096 36.8333 20.3333 36.8333H15.125C14.8487 36.8333 14.5838 36.7235 14.3884 36.5283C14.1931 36.3329 14.0833 36.0679 14.0833 35.7916V30.5833C14.0833 30.307 14.1931 30.0421 14.3884 29.8468C14.5838 29.6514 14.8487 29.5416 15.125 29.5416H20.3333C20.6096 29.5416 20.8745 29.6514 21.0699 29.8468C21.2652 30.0421 21.375 30.307 21.375 30.5833V35.7916Z" fill="#0062FF"/>
<path d="M35.7916 27.4583H30.5833C29.7545 27.4583 28.9596 27.7875 28.3736 28.3736C27.7875 28.9596 27.4583 29.7545 27.4583 30.5833V35.7916C27.4583 36.6204 27.7875 37.4153 28.3736 38.0014C28.9596 38.5874 29.7545 38.9166 30.5833 38.9166H35.7916C36.6204 38.9166 37.4153 38.5874 38.0014 38.0014C38.5874 37.4153 38.9166 36.6204 38.9166 35.7916V30.5833C38.9166 29.7545 38.5874 28.9596 38.0014 28.3736C37.4153 27.7875 36.6204 27.4583 35.7916 27.4583ZM36.8333 35.7916C36.8333 36.0679 36.7235 36.3329 36.5281 36.5283C36.3329 36.7235 36.0679 36.8333 35.7916 36.8333H30.5833C30.307 36.8333 30.042 36.7235 29.8468 36.5283C29.6514 36.3329 29.5416 36.0679 29.5416 35.7916V30.5833C29.5416 30.307 29.6514 30.0421 29.8468 29.8468C30.042 29.6514 30.307 29.5416 30.5833 29.5416H35.7916C36.0679 29.5416 36.3329 29.6514 36.5281 29.8468C36.7235 30.0421 36.8333 30.307 36.8333 30.5833V35.7916Z" fill="#001A6F"/>
<defs>
<filter id="filter0_i_709_218" x="0" y="0" width="50" height="50" filterUnits="userSpaceOnUse" color-interpolation-filters="sRGB">
<feFlood flood-opacity="0" result="BackgroundImageFix"/>
<feBlend mode="normal" in="SourceGraphic" in2="BackgroundImageFix" result="shape"/>
<feColorMatrix in="SourceAlpha" type="matrix" values="0 0 0 0 0 0 0 0 0 0 0 0 0 0 0 0 0 0 127 0" result="hardAlpha"/>
<feOffset/>
<feGaussianBlur stdDeviation="2"/>
<feComposite in2="hardAlpha" operator="arithmetic" k2="-1" k3="1"/>
<feColorMatrix type="matrix" values="0 0 0 0 0 0 0 0 0 0 0 0 0 0 0 0 0 0 0.1 0"/>
<feBlend mode="normal" in2="shape" result="effect1_innerShadow_709_218"/>
</filter>
</defs>
</svg>
