<svg width="28" height="26" viewBox="0 0 28 26" fill="none" xmlns="http://www.w3.org/2000/svg">
<path d="M9.19132 6.10369e-05H17.3498L8.88083 25.0936C8.79377 25.3515 8.62801 25.5756 8.40688 25.7344C8.18575 25.8931 7.92039 25.9785 7.64817 25.9785H1.29897C1.09274 25.9785 0.889473 25.9294 0.705983 25.8353C0.522492 25.7411 0.364054 25.6047 0.243778 25.4371C0.123501 25.2696 0.0448437 25.0759 0.0143127 24.8719C-0.0162182 24.668 0.00225514 24.4597 0.0682044 24.2643L7.95867 0.884988C8.04571 0.62706 8.21147 0.402936 8.4326 0.244183C8.65374 0.0854297 8.9191 4.71051e-05 9.19132 6.10369e-05Z" fill="url(#paint0_linear_534_1011)"/>
<path d="M21.0467 16.8311H8.10937C7.98913 16.831 7.87167 16.8672 7.77226 16.9349C7.67286 17.0025 7.59612 17.0985 7.55203 17.2104C7.50795 17.3223 7.49855 17.4448 7.52507 17.5621C7.55159 17.6794 7.6128 17.786 7.70073 17.868L16.0141 25.6269C16.2561 25.8528 16.5747 25.9784 16.9057 25.9784H24.2311L21.0467 16.8311Z" fill="#0078D4"/>
<path d="M9.19132 8.9653e-06C8.91616 -0.00101647 8.64789 0.0859476 8.42566 0.248203C8.20343 0.410458 8.0389 0.639507 7.95607 0.901904L0.0779847 24.243C0.00762409 24.4391 -0.014467 24.6493 0.0135804 24.8557C0.0416278 25.0622 0.118988 25.2589 0.239118 25.4291C0.359247 25.5993 0.518612 25.7381 0.703729 25.8338C0.888847 25.9294 1.09427 25.979 1.30262 25.9784H7.81573C8.05838 25.9351 8.28517 25.8281 8.47292 25.6684C8.66068 25.5087 8.80266 25.302 8.88436 25.0695L10.4551 20.4398L16.0669 25.6737C16.302 25.8683 16.597 25.9759 16.9022 25.9784H24.2004L20.9994 16.8311L11.6682 16.8332L17.3795 8.9653e-06H9.19132Z" fill="url(#paint1_linear_534_1011)"/>
<path d="M19.6118 0.883513C19.5249 0.626009 19.3594 0.402253 19.1386 0.243756C18.9178 0.0852583 18.6529 4.44761e-06 18.3811 0H9.28865C9.56044 -2.50789e-06 9.82539 0.0852466 10.0462 0.243743C10.267 0.40224 10.4325 0.625999 10.5194 0.883513L18.4103 24.2641C18.4763 24.4595 18.4948 24.6678 18.4642 24.8718C18.4337 25.0757 18.355 25.2695 18.2348 25.437C18.1145 25.6045 17.9561 25.741 17.7726 25.8352C17.5891 25.9293 17.3858 25.9784 17.1796 25.9784H26.2721C26.4783 25.9784 26.6815 25.9293 26.865 25.8351C27.0485 25.741 27.2069 25.6045 27.3272 25.437C27.4474 25.2694 27.5261 25.0757 27.5566 24.8717C27.5871 24.6678 27.5687 24.4595 27.5027 24.2641L19.6118 0.883513Z" fill="url(#paint2_linear_534_1011)"/>
<defs>
<linearGradient id="paint0_linear_534_1011" x1="12.165" y1="1.9251" x2="3.69217" y2="26.9558" gradientUnits="userSpaceOnUse">
<stop stop-color="#114A8B"/>
<stop offset="1" stop-color="#0669BC"/>
</linearGradient>
<linearGradient id="paint1_linear_534_1011" x1="14.8117" y1="13.5899" x2="12.8517" y2="14.2526" gradientUnits="userSpaceOnUse">
<stop stop-opacity="0.3"/>
<stop offset="0.071" stop-opacity="0.2"/>
<stop offset="0.321" stop-opacity="0.1"/>
<stop offset="0.623" stop-opacity="0.05"/>
<stop offset="1" stop-opacity="0"/>
</linearGradient>
<linearGradient id="paint2_linear_534_1011" x1="13.7338" y1="1.19483" x2="23.0342" y2="25.9735" gradientUnits="userSpaceOnUse">
<stop stop-color="#3CCBF4"/>
<stop offset="1" stop-color="#2892DF"/>
</linearGradient>
</defs>
</svg>
