<svg width="22" height="12" viewBox="0 0 22 12" fill="none" xmlns="http://www.w3.org/2000/svg">
<path d="M11.243 3.40367C9.68556 3.40367 8.3364 4.27945 7.65471 5.56233C6.97303 4.27945 5.61914 3.40367 4.06169 3.40367C3.14804 3.40367 2.30541 3.70664 1.62373 4.2179V0.795295C1.61426 0.355042 1.25448 0 0.809497 0C0.364511 0 0.0094678 0.355042 0 0.795295V7.53637C0.0378712 9.75183 1.84149 11.5318 4.06169 11.5318C5.61914 11.5318 6.97303 10.656 7.65471 9.37312C8.3364 10.656 9.69029 11.5318 11.243 11.5318C13.4869 11.5318 15.3094 9.71396 15.3094 7.46536C15.3047 5.22149 13.4869 3.40367 11.243 3.40367ZM4.06169 9.90332C2.71726 9.90332 1.62373 8.81452 1.62373 7.46536C1.62373 6.12093 2.71726 5.0274 4.06169 5.0274C5.40611 5.0274 6.49964 6.1162 6.49964 7.46536C6.49964 8.81452 5.40611 9.90332 4.06169 9.90332ZM11.243 9.90332C9.89858 9.90332 8.80505 8.81452 8.80505 7.46536C8.80505 6.12093 9.89858 5.0274 11.243 5.0274C12.5874 5.0274 13.681 6.1162 13.681 7.46536C13.681 8.81452 12.5874 9.90332 11.243 9.90332Z" fill="#0061D5"/>
<path d="M21.6103 10.1732L19.3995 7.46538L21.6103 4.74812C21.8896 4.38835 21.8091 3.89129 21.4256 3.62619C21.0375 3.35636 20.4978 3.42737 20.1996 3.77294L18.2965 6.10675L16.3935 3.77294C16.0953 3.42737 15.5509 3.35636 15.1674 3.62619C14.784 3.89129 14.7035 4.39308 14.9828 4.74812L17.1888 7.46538L14.9828 10.1732C14.7035 10.5329 14.784 11.03 15.1674 11.2998C15.5509 11.5649 16.1 11.4987 16.3935 11.1484L18.2965 8.81928L20.1948 11.1484C20.4931 11.4987 21.0375 11.5649 21.4209 11.2998C21.8138 11.03 21.8943 10.5282 21.6103 10.1732Z" fill="#0061D5"/>
</svg>
