<svg width="82" height="82" viewBox="0 0 82 82" fill="none" xmlns="http://www.w3.org/2000/svg">
<g clip-path="url(#clip0_771_36)">
<g filter="url(#filter0_d_771_36)">
<g filter="url(#filter1_d_771_36)">
<path d="M62 5H22C13.7157 5 7 11.7157 7 20V60C7 68.2843 13.7157 75 22 75H62C70.2843 75 77 68.2843 77 60V20C77 11.7157 70.2843 5 62 5Z" fill="#0129AC"/>
</g>
<path d="M23 20V37.0833H60.5833V20H23ZM43.5 30.25H28.125V26.8333H43.5V30.25ZM48.625 30.25C48.2871 30.25 47.9568 30.1498 47.6759 29.9621C47.395 29.7744 47.176 29.5076 47.0467 29.1954C46.9174 28.8833 46.8836 28.5398 46.9495 28.2084C47.0154 27.877 47.1781 27.5726 47.417 27.3337C47.6559 27.0948 47.9603 26.9321 48.2917 26.8662C48.6231 26.8002 48.9666 26.8341 49.2787 26.9634C49.5909 27.0927 49.8577 27.3116 50.0454 27.5926C50.2331 27.8735 50.3333 28.2038 50.3333 28.5417C50.3333 28.9947 50.1534 29.4293 49.833 29.7496C49.5126 30.07 49.0781 30.25 48.625 30.25ZM53.75 30.25C53.4121 30.25 53.0818 30.1498 52.8009 29.9621C52.52 29.7744 52.301 29.5076 52.1717 29.1954C52.0424 28.8833 52.0086 28.5398 52.0745 28.2084C52.1404 27.877 52.3031 27.5726 52.542 27.3337C52.7809 27.0948 53.0853 26.9321 53.4167 26.8662C53.7481 26.8002 54.0916 26.8341 54.4038 26.9634C54.7159 27.0927 54.9827 27.3116 55.1704 27.5926C55.3581 27.8735 55.4583 28.2038 55.4583 28.5417C55.4583 28.9947 55.2784 29.4293 54.958 29.7496C54.6376 30.07 54.2031 30.25 53.75 30.25Z" fill="white"/>
<path d="M41.7917 50.75H28.125V47.3333H42.2939C43.1524 44.4715 45.0499 42.0342 47.6137 40.5H23V57.5833H43.9442C42.5414 55.5809 41.7898 53.1949 41.7917 50.75Z" fill="white"/>
<path d="M59.555 49.4654L61.5025 47.7571L59.7942 44.8017L57.3171 45.6387C56.7686 45.1765 56.1445 44.8124 55.4721 44.5625L54.9596 42H51.5429L51.0304 44.5454C50.358 44.7953 49.7339 45.1594 49.1854 45.6217L46.7083 44.7846L45 47.74L46.9475 49.4483C46.8108 50.1593 46.8108 50.8898 46.9475 51.6008L45 53.3092L46.7083 56.2646L49.1854 55.4275C49.7338 55.8898 50.358 56.2539 51.0304 56.5037L51.5429 59.0833H54.9596L55.4721 56.5379C56.1445 56.2881 56.7686 55.924 57.3171 55.4617L59.7942 56.2987L61.5025 53.3433L59.555 51.635C59.6917 50.9183 59.6917 50.1822 59.555 49.4654ZM53.2512 53.9583C52.5755 53.9583 51.9149 53.7579 51.3531 53.3825C50.7912 53.0071 50.3533 52.4735 50.0947 51.8492C49.8361 51.2249 49.7684 50.5379 49.9002 49.8751C50.0321 49.2123 50.3575 48.6035 50.8353 48.1257C51.3131 47.6479 51.9219 47.3225 52.5847 47.1907C53.2475 47.0588 53.9344 47.1265 54.5588 47.3851C55.1831 47.6437 55.7167 48.0816 56.0921 48.6435C56.4675 49.2053 56.6679 49.8659 56.6679 50.5417C56.6652 51.447 56.3044 52.3145 55.6642 52.9546C55.024 53.5948 54.1566 53.9556 53.2512 53.9583Z" fill="white"/>
</g>
</g>
<defs>
<filter id="filter0_d_771_36" x="0" y="0" width="82" height="82" filterUnits="userSpaceOnUse" color-interpolation-filters="sRGB">
<feFlood flood-opacity="0" result="BackgroundImageFix"/>
<feColorMatrix in="SourceAlpha" type="matrix" values="0 0 0 0 0 0 0 0 0 0 0 0 0 0 0 0 0 0 127 0" result="hardAlpha"/>
<feOffset dx="-1" dy="1"/>
<feGaussianBlur stdDeviation="3"/>
<feComposite in2="hardAlpha" operator="out"/>
<feColorMatrix type="matrix" values="0 0 0 0 0.501961 0 0 0 0 0.619608 0 0 0 0 0.988235 0 0 0 0.25 0"/>
<feBlend mode="normal" in2="BackgroundImageFix" result="effect1_dropShadow_771_36"/>
<feBlend mode="normal" in="SourceGraphic" in2="effect1_dropShadow_771_36" result="shape"/>
</filter>
<filter id="filter1_d_771_36" x="7" y="5" width="70" height="70" filterUnits="userSpaceOnUse" color-interpolation-filters="sRGB">
<feFlood flood-opacity="0" result="BackgroundImageFix"/>
<feColorMatrix in="SourceAlpha" type="matrix" values="0 0 0 0 0 0 0 0 0 0 0 0 0 0 0 0 0 0 127 0" result="hardAlpha"/>
<feOffset/>
<feComposite in2="hardAlpha" operator="out"/>
<feColorMatrix type="matrix" values="0 0 0 0 0 0 0 0 0 0 0 0 0 0 0 0 0 0 0.25 0"/>
<feBlend mode="normal" in2="BackgroundImageFix" result="effect1_dropShadow_771_36"/>
<feBlend mode="normal" in="SourceGraphic" in2="effect1_dropShadow_771_36" result="shape"/>
</filter>
<clipPath id="clip0_771_36">
<rect width="82" height="82" fill="white"/>
</clipPath>
</defs>
</svg>
