<svg width="82" height="82" viewBox="0 0 82 82" fill="none" xmlns="http://www.w3.org/2000/svg">
<g filter="url(#filter0_d_754_11)">
<g filter="url(#filter1_d_754_11)">
<path d="M62 5H22C13.7157 5 7 11.7157 7 20V60C7 68.2843 13.7157 75 22 75H62C70.2843 75 77 68.2843 77 60V20C77 11.7157 70.2843 5 62 5Z" fill="#0129AC"/>
</g>
<path d="M61.9948 38.8267C61.9948 40.5572 57.7889 41.9581 52.599 41.9581C47.409 41.9581 43.2031 40.5572 43.2031 38.8267V35.6953C43.2031 37.4241 47.409 38.8267 52.599 38.8267C57.7889 38.8267 61.9948 37.4259 61.9948 35.6953" fill="white"/>
<path d="M52.599 30.4829C47.4142 30.4829 43.2031 29.0736 43.2031 27.3516V33.5699C43.2031 35.2936 47.4142 36.703 52.599 36.703C57.7838 36.703 61.9948 35.2936 61.9948 33.5699V27.3516C61.9948 29.0736 57.7838 30.4829 52.599 30.4829Z" fill="white"/>
<path d="M62 23.1314C62 21.4025 57.7941 20 52.6042 20C47.4143 20 43.2083 21.4008 43.2083 23.1314V25.2207C43.2083 26.9495 47.4143 28.352 52.6042 28.352C57.7941 28.352 62 26.9512 62 25.2207M39.7917 57.6192C39.7917 59.3498 35.5858 60.7506 30.3958 60.7506C25.2059 60.7506 21 59.3498 21 57.6192V54.4878C21 56.2167 25.2059 57.6175 30.3958 57.6175C35.5858 57.6175 39.7917 56.2167 39.7917 54.4861V57.6192Z" fill="white"/>
<path d="M62.0026 23.1314C62.0026 21.4025 57.7967 20 52.6068 20C47.4169 20 43.2109 21.4008 43.2109 23.1314V25.2207C43.2109 26.9495 47.4169 28.352 52.6068 28.352C57.7967 28.352 62.0026 26.9512 62.0026 25.2207" fill="white"/>
<path d="M30.3958 49.2798C25.211 49.2798 21 47.8704 21 46.1484V52.3668C21 54.0905 25.211 55.4999 30.3958 55.4999C35.5806 55.4999 39.7917 54.0905 39.7917 52.3668V46.1484C39.7917 47.8704 35.5806 49.2798 30.3958 49.2798Z" fill="white"/>
<path d="M39.7917 41.9243C39.7917 40.1955 35.5857 38.793 30.3958 38.793C25.2059 38.793 21 40.1938 21 41.9243V44.0136C21 45.7425 25.2059 47.145 30.3958 47.145C35.5857 47.145 39.7917 45.7442 39.7917 44.0136V41.9243ZM55.1667 55.8763H51.75V51.4517L47.3254 55.8763L44.9167 53.4676L49.3412 49.043H44.9167V45.6263H55.1667V55.8763Z" fill="white"/>
</g>
<defs>
<filter id="filter0_d_754_11" x="0" y="0" width="82" height="82" filterUnits="userSpaceOnUse" color-interpolation-filters="sRGB">
<feFlood flood-opacity="0" result="BackgroundImageFix"/>
<feColorMatrix in="SourceAlpha" type="matrix" values="0 0 0 0 0 0 0 0 0 0 0 0 0 0 0 0 0 0 127 0" result="hardAlpha"/>
<feOffset dx="-1" dy="1"/>
<feGaussianBlur stdDeviation="3"/>
<feComposite in2="hardAlpha" operator="out"/>
<feColorMatrix type="matrix" values="0 0 0 0 0.501961 0 0 0 0 0.619608 0 0 0 0 0.988235 0 0 0 0.25 0"/>
<feBlend mode="normal" in2="BackgroundImageFix" result="effect1_dropShadow_754_11"/>
<feBlend mode="normal" in="SourceGraphic" in2="effect1_dropShadow_754_11" result="shape"/>
</filter>
<filter id="filter1_d_754_11" x="7" y="5" width="70" height="70" filterUnits="userSpaceOnUse" color-interpolation-filters="sRGB">
<feFlood flood-opacity="0" result="BackgroundImageFix"/>
<feColorMatrix in="SourceAlpha" type="matrix" values="0 0 0 0 0 0 0 0 0 0 0 0 0 0 0 0 0 0 127 0" result="hardAlpha"/>
<feOffset/>
<feComposite in2="hardAlpha" operator="out"/>
<feColorMatrix type="matrix" values="0 0 0 0 0 0 0 0 0 0 0 0 0 0 0 0 0 0 0.25 0"/>
<feBlend mode="normal" in2="BackgroundImageFix" result="effect1_dropShadow_754_11"/>
<feBlend mode="normal" in="SourceGraphic" in2="effect1_dropShadow_754_11" result="shape"/>
</filter>
</defs>
</svg>
