<svg width="110" height="110" viewBox="0 0 110 110" fill="none" xmlns="http://www.w3.org/2000/svg">
<g filter="url(#filter0_d_754_11)">
<path d="M75 16H35C26.7157 16 20 22.7157 20 31V71C20 79.2843 26.7157 86 35 86H75C83.2843 86 90 79.2843 90 71V31C90 22.7157 83.2843 16 75 16Z" fill="white"/>
</g>
<path d="M74.9948 49.8267C74.9948 51.5572 70.7889 52.9581 65.599 52.9581C60.409 52.9581 56.2031 51.5572 56.2031 49.8267V46.6953C56.2031 48.4241 60.409 49.8267 65.599 49.8267C70.7889 49.8267 74.9948 48.4259 74.9948 46.6953" fill="#0129AC"/>
<path d="M65.599 41.4829C60.4142 41.4829 56.2031 40.0736 56.2031 38.3516V44.5699C56.2031 46.2936 60.4142 47.703 65.599 47.703C70.7838 47.703 74.9948 46.2936 74.9948 44.5699V38.3516C74.9948 40.0736 70.7838 41.4829 65.599 41.4829Z" fill="#0129AC"/>
<path d="M75 34.1314C75 32.4025 70.7941 31 65.6042 31C60.4143 31 56.2083 32.4008 56.2083 34.1314V36.2207C56.2083 37.9495 60.4143 39.352 65.6042 39.352C70.7941 39.352 75 37.9512 75 36.2207M52.7917 68.6192C52.7917 70.3498 48.5858 71.7506 43.3958 71.7506C38.2059 71.7506 34 70.3498 34 68.6192V65.4878C34 67.2167 38.2059 68.6175 43.3958 68.6175C48.5858 68.6175 52.7917 67.2167 52.7917 65.4861V68.6192Z" fill="#809EFC"/>
<path d="M75.0026 34.1314C75.0026 32.4025 70.7967 31 65.6068 31C60.4169 31 56.2109 32.4008 56.2109 34.1314V36.2207C56.2109 37.9495 60.4169 39.352 65.6068 39.352C70.7967 39.352 75.0026 37.9512 75.0026 36.2207" fill="#0129AC"/>
<path d="M43.3958 60.2798C38.211 60.2798 34 58.8704 34 57.1484V63.3668C34 65.0905 38.211 66.4999 43.3958 66.4999C48.5806 66.4999 52.7917 65.0905 52.7917 63.3668V57.1484C52.7917 58.8704 48.5806 60.2798 43.3958 60.2798Z" fill="#809EFC"/>
<path d="M52.7917 52.9243C52.7917 51.1955 48.5857 49.793 43.3958 49.793C38.2059 49.793 34 51.1938 34 52.9243V55.0136C34 56.7425 38.2059 58.145 43.3958 58.145C48.5857 58.145 52.7917 56.7442 52.7917 55.0136V52.9243ZM68.1667 66.8763H64.75V62.4517L60.3254 66.8763L57.9167 64.4676L62.3412 60.043H57.9167V56.6263H68.1667V66.8763Z" fill="#809EFC"/>
<defs>
<filter id="filter0_d_754_11" x="0" y="0" width="110" height="110" filterUnits="userSpaceOnUse" color-interpolation-filters="sRGB">
<feFlood flood-opacity="0" result="BackgroundImageFix"/>
<feColorMatrix in="SourceAlpha" type="matrix" values="0 0 0 0 0 0 0 0 0 0 0 0 0 0 0 0 0 0 127 0" result="hardAlpha"/>
<feOffset dy="4"/>
<feGaussianBlur stdDeviation="10"/>
<feColorMatrix type="matrix" values="0 0 0 0 0.090196 0 0 0 0 0.0588235 0 0 0 0 0.286275 0 0 0 0.08 0"/>
<feBlend mode="normal" in2="BackgroundImageFix" result="effect1_dropShadow_754_11"/>
<feBlend mode="normal" in="SourceGraphic" in2="effect1_dropShadow_754_11" result="shape"/>
</filter>
</defs>
</svg>
