<svg xmlns="http://www.w3.org/2000/svg" shape-rendering="geometricPrecision" text-rendering="geometricPrecision" image-rendering="optimizeQuality" fill-rule="evenodd" clip-rule="evenodd" viewBox="0 0 512 495.046"><path fill="#E38B5F" fill-rule="nonzero" d="M457.491 231.474l40.643-7.758c6.33-1.21 12.446 2.942 13.656 9.273 1.21 6.33-2.942 12.446-9.272 13.656l-76.32 14.57-47.76 45.389c-4.667 4.439-12.05 4.255-16.489-.411-4.44-4.667-4.256-12.05.411-16.49l48.248-45.852 17.181-73.885c1.438-6.281 7.695-10.207 13.976-8.769 6.281 1.437 10.207 7.695 8.77 13.975l-9.175 39.452 26.302-24.996c4.667-4.44 12.05-4.256 16.49.411 4.439 4.667 4.255 12.05-.412 16.489l-26.249 24.946zM28.256 206.521c-4.662-4.436-4.846-11.814-.41-16.476 4.435-4.662 11.813-4.845 16.475-.41l26.325 25.018-9.182-39.482c-1.436-6.276 2.486-12.529 8.762-13.966 6.276-1.436 12.53 2.487 13.966 8.763l17.184 73.889 48.249 45.853c4.662 4.436 4.846 11.814.41 16.476-4.435 4.662-11.813 4.846-16.476.41l-47.761-45.39-76.323-14.569C3.148 245.428-.999 239.317.21 232.99c1.209-6.327 7.32-10.474 13.646-9.265l40.672 7.764-26.272-24.968z"/><path fill="#8B9AA6" fill-rule="nonzero" d="M255.866 219.135c38.094 0 72.585 15.443 97.548 40.406 24.966 24.966 40.408 59.455 40.408 97.549 0 38.095-15.442 72.584-40.408 97.55-24.963 24.963-59.454 40.406-97.548 40.406s-72.585-15.443-97.549-40.406c-24.964-24.965-40.407-59.455-40.407-97.55 0-38.094 15.443-72.584 40.407-97.549 24.964-24.963 59.455-40.406 97.549-40.406z"/><path fill="#E8F5FF" d="M255.866 228.521c71.007 0 128.57 57.563 128.57 128.569 0 71.007-57.563 128.57-128.57 128.57-71.008 0-128.57-57.563-128.57-128.57 0-71.006 57.562-128.569 128.57-128.569z"/><path fill="#F7594E" d="M335.067 279.116V343.4c0 4.093-3.363 7.456-7.456 7.456h-42.894c-4.093 0-7.456-3.355-7.456-7.456v-64.284H174.326c-13.972 0-25.404-11.43-25.404-25.403v-.002c0-13.972 11.432-25.403 25.404-25.403h161.997c13.972 0 25.404 11.431 25.404 25.403v.002c0 13.973-11.432 25.403-25.404 25.403h-1.256z"/><path fill="#EA4642" d="M335.068 279.117v78.323c0 4.09-3.366 7.456-7.456 7.456h-42.895c-4.09 0-7.456-3.356-7.456-7.456v-78.323H174.325c-13.972 0-25.401-11.433-25.401-25.404 0-.611.025-1.217.067-1.817h212.67c.042.6.067 1.206.067 1.817 0 13.971-11.433 25.404-25.404 25.404h-1.256z"/><path fill="#E38B5F" d="M255.865 331.291c6.19 0 11.209 5.019 11.209 11.205 0 6.19-5.019 11.209-11.209 11.209-6.186 0-11.205-5.019-11.205-11.209 0-6.186 5.019-11.205 11.205-11.205zm0 101.312c6.19 0 11.209 5.019 11.209 11.205 0 6.19-5.019 11.209-11.209 11.209-6.186 0-11.205-5.019-11.205-11.209 0-6.186 5.019-11.205 11.205-11.205zm0-50.656c6.19 0 11.209 5.019 11.209 11.205 0 6.19-5.019 11.209-11.209 11.209-6.186 0-11.205-5.019-11.205-11.209 0-6.186 5.019-11.205 11.205-11.205z"/><path fill="#8B9AA6" fill-rule="nonzero" d="M336.42 89.441c6.79 8.808 12.187 18.699 15.854 29.343a103.17 103.17 0 015.627 33.694c0 28.559-11.577 54.416-30.289 73.129-18.715 18.716-44.569 30.291-73.126 30.291-28.56 0-54.415-11.575-73.13-30.29-18.714-18.715-30.29-44.571-30.29-73.13 0-11.784 1.981-23.122 5.626-33.694 3.761-10.913 9.338-21.035 16.372-30.009a9.33 9.33 0 017.369-3.595v-.036h148.101a9.378 9.378 0 017.886 4.297z"/><path fill="#E8F5FF" d="M328.534 94.53c12.518 15.972 19.981 36.088 19.981 57.949 0 51.936-42.097 94.033-94.03 94.033-51.936 0-94.033-42.097-94.033-94.033 0-21.861 7.463-41.977 19.98-57.949h148.102z"/><path fill="#565E75" d="M224.243 134.855c6.188 0 11.206 5.018 11.206 11.207 0 6.189-5.018 11.206-11.206 11.206-6.189 0-11.205-5.017-11.205-11.206 0-6.189 5.016-11.207 11.205-11.207zM286.287 134.855c6.189 0 11.207 5.018 11.207 11.207 0 6.189-5.018 11.206-11.207 11.206-6.189 0-11.206-5.017-11.206-11.206 0-6.189 5.017-11.207 11.206-11.207z"/><path fill="#EA4642" d="M255.129 175.853c6.189 0 11.206 5.016 11.206 11.205 0 6.19-5.017 11.206-11.206 11.206-6.189 0-11.206-5.016-11.206-11.206 0-6.189 5.017-11.205 11.206-11.205z"/><path fill="#565E75" d="M336.334 76.645h41.895c6.477 0 11.734 5.257 11.734 11.734s-5.257 11.734-11.734 11.734h-45.488a6.975 6.975 0 01-4.207 1.404l-148.102.029a6.992 6.992 0 01-4.245-1.433h-47.996c-6.477 0-11.733-5.257-11.733-11.734s5.256-11.734 11.733-11.734h46.034L174.2 34.9c0-9.606 3.927-18.339 10.244-24.656C190.762 3.927 199.495 0 209.1 0h92.334c9.606 0 18.339 3.927 24.656 10.244 6.318 6.317 10.244 15.05 10.244 24.656v41.745z"/><path d="M174.222 75.528l-.007-17.856h162.119v17.856z"/></svg>